<svg width="29" height="29" viewBox="0 0 29 29" fill="none" xmlns="http://www.w3.org/2000/svg">
<path d="M24.2824 26.9299C17.7141 33.4982 -4.64199 11.1421 1.92629 4.57388L5.60747 0.892564C6.06336 0.436657 6.82518 0.524958 7.1647 1.07306L10.4422 6.36413C10.6458 6.6928 10.6417 7.10939 10.4317 7.43398L8.6529 10.183C8.39674 10.5789 8.45194 11.0999 8.78536 11.4334L13.1041 15.7521L17.4231 20.0707C17.7566 20.4041 18.2776 20.4593 18.6734 20.2031L21.422 18.4247C21.7466 18.2147 22.1631 18.2105 22.4918 18.4141L27.7831 21.6915C28.3312 22.031 28.4195 22.7928 27.9636 23.2487L24.2824 26.9299Z" fill="white" stroke="white" stroke-linecap="round" stroke-linejoin="round"/>
</svg>
